HIERARCHY
ROOT simHips
{
  OFFSET -17.1045 97.9264 -0.496699
  CHANNELS 6 Xposition Yposition Zposition Zrotation Xrotation Yrotation
  JOINT simSpine
  {
    OFFSET -0.000355721 21.3001 -0.016921
    CHANNELS 3 Zrotation Xrotation Yrotation
    JOINT simLeftArm
    {
      OFFSET 13.5181 21.3012 0
      CHANNELS 3 Zrotation Xrotation Yrotation
      JOINT simLeftForeArm
      {
        OFFSET 24.5783 0 0
        CHANNELS 3 Zrotation Xrotation Yrotation
        JOINT simLeftHand
        {
          OFFSET 24.5783 0 0
          CHANNELS 3 Zrotation Xrotation Yrotation
          End Site
          {
            OFFSET 7.32568 1.52588e-005 0.0169305
          }
        }
      }
    }
    JOINT simHead
    {
      OFFSET 0 27.4458 -0.00489235
      CHANNELS 3 Zrotation Xrotation Yrotation
      End Site
      {
        OFFSET 0 0 0
      }
    }
    JOINT simRightArm
    {
      OFFSET -13.5174 21.3012 0
      CHANNELS 3 Zrotation Xrotation Yrotation
      JOINT simRightForeArm
      {
        OFFSET -24.5783 0 0
        CHANNELS 3 Zrotation Xrotation Yrotation
        JOINT simRightHand
        {
          OFFSET -24.5783 0 0
          CHANNELS 3 Zrotation Xrotation Yrotation
          End Site
          {
            OFFSET -7.32568 1.52588e-005 0.0169305
          }
        }
      }
    }
  }
  JOINT simRightUpLeg
  {
    OFFSET -8.44614 -9.41038 0.835684
    CHANNELS 3 Zrotation Xrotation Yrotation
    JOINT simRightLeg
    {
      OFFSET 0 -40.9639 0
      CHANNELS 3 Zrotation Xrotation Yrotation
      JOINT simRightFoot
      {
        OFFSET 0 -40.9639 0
        CHANNELS 3 Zrotation Xrotation Yrotation
        End Site
        {
          OFFSET 0.50614 -9.67405 14.6709
        }
      }
    }
  }
  JOINT simLeftUpLeg
  {
    OFFSET 8.44614 -9.41038 0.835684
    CHANNELS 3 Zrotation Xrotation Yrotation
    JOINT simLeftLeg
    {
      OFFSET 0 -40.9639 0
      CHANNELS 3 Zrotation Xrotation Yrotation
      JOINT simLeftFoot
      {
        OFFSET 0 -40.9639 0
        CHANNELS 3 Zrotation Xrotation Yrotation
        End Site
        {
          OFFSET -0.50614 -9.67405 14.6709
        }
      }
    }
  }
}
MOTION
Frames:	14
Frame Time:	0.0333333
-17.1045 97.9264 -0.496699 -0 0 2.272e-008 -0 0 8.40017e-008 -6.83019e-006 -1.70755e-006 -1.53679e-005 -0.00723993 1.70755e-006 2.49206e-005 8.28361e-015 -1.40664e-021 -9.97839e-006 0 0 -5.33609e-008 6.83019e-006 -8.53773e-007 5.12264e-006 -6.83019e-006 -5.97642e-006 -1.51822e-005 2.5573e-008 0.00641866 9.89113e-006 0.6192 8.17214 -0.043999 -0.000237887 -0.0466112 8.1676e-007 -0.618924 -8.12553 -0.0439634 1.22772 0.389839 -0.0745354 -0.000157057 13.1377 -0.0426043 -1.25182 -13.5269 -0.176866 
-17.1046 97.9315 -0.498315 0.0201344 -0.00789594 0.0593984 0.0231863 0.108914 -0.0146352 0.0198642 -0.00958888 0.0238057 -0.00724672 -0.011628 -0.0334885 -1.09516e-006 2.98367e-006 3.11913e-006 -0.0291974 0.0156454 -0.0723992 -0.132474 -0.0547591 -0.0112717 0.0059817 0.000742993 0.0527093 -0.00107922 0.00641866 0.0543123 0.588491 8.11971 -0.0403392 0.0147949 0.120457 -0.0215635 -0.589805 -8.20984 -0.0725121 1.20697 0.405067 -0.0510017 -0.00638771 13.1265 -0.0600237 -1.22822 -13.5081 -0.206915 
-17.1063 97.9334 -0.498835 0.0201439 -0.0213416 0.105333 0.00764323 0.200096 -0.0204219 0.0707689 -0.0355145 0.0150953 -0.00723459 0.00671918 -0.0454977 0.0301542 0.0248634 0.0201457 -0.00859533 0.0737557 -0.176574 -0.188359 0.0548083 -0.0292456 0.0509707 -0.0497193 0.0961274 -0.0301822 -0.00484639 0.0202132 0.568589 8.05729 -0.0623598 0.0341423 0.275725 -0.0414701 -0.619996 -8.22283 -0.0829893 1.20478 0.448275 -0.0650776 -0.0159626 13.0522 -0.0712221 -1.21885 -13.4764 -0.225337 
-17.1074 97.9274 -0.488971 0.0183029 -0.0235291 0.178074 0.0388573 0.271729 -0.026232 0.0701722 -0.0471572 -0.035991 -0.00721861 0.0231491 -0.0527678 0.0443643 0.0403384 0.00919124 -0.0276279 0.156799 -0.300834 -0.232122 -0.0784506 -0.0766504 0.0350029 -0.0621824 0.0511473 -0.0400008 -0.0106653 0.00226648 0.592764 8.01703 -0.0705662 0.0239601 0.346673 -0.0553617 -0.633598 -8.19913 -0.131154 1.22143 0.403566 -0.109368 -0.030339 13.1401 -0.0824759 -1.20279 -13.4945 -0.230095 
-17.1075 97.9168 -0.462199 0.0157673 -0.0229704 0.247904 0.0619836 0.291775 -0.0275054 0.0639052 -0.074454 -0.0548092 -0.00721471 0.0159559 -0.0905583 0.0241414 0.0294982 -0.00445244 -0.0495249 0.290162 -0.407147 -0.232927 -0.135962 -0.106454 0.0416071 -0.0386905 0.0462532 -0.0133508 -0.00351625 0.0415981 0.626488 8.14814 -0.0679362 0.0113916 0.18287 -0.0784331 -0.591852 -8.22278 -0.152492 1.2315 0.355806 -0.136048 -0.0383821 13.2486 -0.0883377 -1.17955 -13.5467 -0.242051 
-17.1122 97.9098 -0.431899 0.0139547 -0.0213846 0.261301 0.071065 0.295757 -0.02087 0.043195 -0.118883 0.000802102 -0.00908121 -0.0384104 -0.148614 0.0252462 0.00937823 -0.0306562 -0.0860429 0.346337 -0.504468 -0.16012 -0.165453 -0.0896795 0.0319159 -0.0036529 0.0794678 -0.0298687 0.0145439 0.0344937 0.648203 8.16046 -0.0666344 -0.010892 0.204928 -0.110732 -0.676881 -8.29485 -0.171487 1.24824 0.388052 -0.162535 -0.0356311 13.2193 -0.0900844 -1.21363 -13.6006 -0.258512 
-17.1299 97.916 -0.395773 0.0141031 -0.0208468 0.206876 0.0465754 0.370469 0.0284297 0.00801031 -0.102733 0.0668902 -0.0107263 -0.00159772 -0.11124 0.00180765 0.0171384 -0.0246197 -0.0952777 0.321862 -0.668812 -0.034408 -0.0746585 -0.0275515 0.058989 -0.0129569 0.132465 -0.0121269 0.00212151 0.0409619 0.627708 7.9883 -0.0944087 0.0297313 0.580424 -0.103375 -0.661224 -8.50843 -0.0883738 1.25687 0.429124 -0.227288 -0.0352347 13.2082 -0.0694561 -1.2427 -13.6652 -0.208717 
-17.1471 97.9312 -0.350704 0.0271562 -0.0230962 0.122762 -0.000334522 0.488087 0.0958956 -0.0516488 0.0021612 0.122483 -0.0120792 0.102137 -0.0139305 -0.0236726 0.0522854 0.00844892 -0.0847738 0.241108 -0.725473 0.102764 -0.0953576 0.0747481 0.0822265 -0.0426263 0.0621186 0.0126233 -0.0403356 0.0142474 0.594905 7.74493 -0.106801 0.0914306 1.13753 -0.0975874 -0.702618 -8.66752 -0.0336664 1.24643 0.480907 -0.314782 -0.0360128 13.2321 -0.0393658 -1.25245 -13.6988 -0.107478 
-17.1677 97.9378 -0.292316 0.0399839 -0.0554724 0.109817 -0.011358 0.661913 0.102486 -0.169565 -0.150352 0.160372 -0.0126426 0.164378 -0.000137368 -0.0164104 0.071011 0.0641132 -0.0964016 0.168608 -0.775338 0.235204 -0.256236 0.170503 0.0351444 0.041347 -3.17552e-005 0.0195994 -0.00110467 0.031651 0.606327 7.64608 -0.150034 0.117754 1.47053 -0.135712 -0.846055 -8.64118 -0.0600468 1.22324 0.593725 -0.328273 -0.0198304 13.1585 -0.0349909 -1.21232 -13.6485 -0.0572024 
-17.2002 97.9322 -0.209338 0.052298 -0.0536961 0.201985 -0.00571024 0.791714 0.0724336 -0.212675 -0.152923 0.171955 -0.0373666 0.148544 -2.82074e-005 -0.0428352 0.0548401 0.0570965 -0.104606 0.171211 -0.807946 0.30866 -0.3628 0.11363 0.045548 0.0642679 0.0106415 0.0577899 -0.00648711 0.0203934 0.617468 7.68927 -0.202436 0.137004 1.50813 -0.179264 -0.856804 -8.67148 -0.0489881 1.25586 0.5977 -0.3261 -0.0408731 13.2285 -0.0486385 -1.19937 -13.6717 -0.113474 
-17.2398 97.9128 -0.105343 0.0518256 -0.0310674 0.348878 -0.000225146 0.836272 0.0455847 -0.15567 -0.122504 0.115056 -0.0500958 0.131584 -6.90999e-005 -0.0411048 0.0510239 0.0175398 -0.0725097 0.290335 -0.93002 0.314866 -0.353052 -0.044755 0.0844104 0.00230527 0.039409 0.0623238 -0.0479468 0.0282873 0.664719 7.76968 -0.22108 0.125305 1.461 -0.237945 -0.832237 -8.77851 -0.0680449 1.32099 0.51562 -0.384707 -0.0950393 13.4517 -0.0630056 -1.16795 -13.8039 -0.168557 
-17.2857 97.8905 0.0115248 0.0510054 -0.000411884 0.44995 -0.0121452 0.892474 0.0429134 -0.110279 -0.220608 0.167422 -0.00714256 0.0804459 -0.131789 -0.00298491 0.0531582 -0.0499842 -0.0649901 0.372871 -1.09274 0.354312 -0.325731 -0.112754 0.0363908 0.0792991 -6.16257e-005 0.0319494 0.019121 0.105262 0.712369 7.85932 -0.203626 0.113804 1.39922 -0.291099 -0.804585 -8.89053 -0.0897302 1.34939 0.46367 -0.473073 -0.108551 13.6129 -0.068383 -1.15842 -13.9166 -0.173602 
-17.337 97.8759 0.146532 0.0567682 0.0422347 0.494207 -0.0415889 0.959313 0.0530664 -0.0814188 -0.156415 0.268284 0.0437586 0.0454911 -0.419828 0.0201059 0.0661289 -0.144677 -0.0957237 0.402057 -1.1861 0.400018 -0.360735 -0.264531 0.0462003 0.0206503 0.15246 0.0137566 -0.00408413 0.162939 0.731112 7.91646 -0.193901 0.126515 1.44582 -0.337706 -0.81313 -9.01072 -0.0916755 1.35564 0.477017 -0.535424 -0.0967465 13.6677 -0.0534756 -1.13584 -13.9977 -0.153815 
-17.3978 97.8579 0.291744 0.0684242 0.0692235 0.517047 -0.0902204 1.06229 0.0555657 -0.118087 0.0607018 0.39127 0.102342 0.101112 -0.67385 0.0562377 0.128447 -0.212683 -0.13983 0.471761 -1.30618 0.50206 -0.504528 -0.299014 0.0100985 0.0390777 0.115288 0.00316386 0.00601241 0.251656 0.762252 7.89134 -0.211766 0.142861 1.59081 -0.385087 -0.867987 -9.08807 -0.0697231 1.3918 0.488108 -0.571277 -0.114239 13.7941 -0.0304164 -1.08954 -14.1179 -0.154173 
